<?xml version="1.0" encoding="iso-8859-1"?>
<!-- Generator: Adobe Illustrator 19.0.0, SVG Export Plug-In . SVG Version: 6.00 Build 0)  -->
<svg version="1.1" id="Capa_1" xmlns="http://www.w3.org/2000/svg" xmlns:xlink="http://www.w3.org/1999/xlink" x="0px" y="0px"
	 viewBox="0 0 480 480" style="enable-background:new 0 0 480 480;" xml:space="preserve">
<g>
	<g>
		<path d="M432,0H48c-4.418,0-8,3.582-8,8v224c0,4.418,3.582,8,8,8h48v24c0,4.418,3.582,8,8,8h64c4.418,0,8-3.582,8-8v-24h256
			c4.418,0,8-3.582,8-8V8C440,3.582,436.418,0,432,0z M160,256h-48v-64h48V256z M384,224h-32v-16h32V224z M424,224h-24v-24
			c0-4.418-3.582-8-8-8h-48c-4.418,0-8,3.582-8,8v24H176v-27.04l20.4,10.16c1.107,0.592,2.345,0.895,3.6,0.88
			c2.995,0.006,5.742-1.661,7.12-4.32l24.96-48l-14.16-7.36l-21.36,41.04l-24.96-12.48c-1.12-0.555-2.35-0.856-3.6-0.88h-64
			c-4.418,0-8,3.582-8,8v40H56V16h368V224z"/>
	</g>
</g>
<g>
	<g>
		<path d="M408,288c-22.091,0-40,17.909-40,40c0,22.091,17.909,40,40,40c22.091,0,40-17.909,40-40C448,305.909,430.091,288,408,288z
			 M408,352c-13.255,0-24-10.745-24-24s10.745-24,24-24s24,10.745,24,24S421.255,352,408,352z"/>
	</g>
</g>
<g>
	<g>
		<path d="M440,384h-64c-4.418,0-8,3.582-8,8v80c0,4.418,3.582,8,8,8h64c4.418,0,8-3.582,8-8v-80C448,387.582,444.418,384,440,384z
			 M432,464h-48v-64h48V464z"/>
	</g>
</g>
<g>
	<g>
		<path d="M72,288c-22.091,0-40,17.909-40,40c0,22.091,17.909,40,40,40s40-17.909,40-40C112,305.909,94.091,288,72,288z M72,352
			c-13.255,0-24-10.745-24-24s10.745-24,24-24s24,10.745,24,24S85.255,352,72,352z"/>
	</g>
</g>
<g>
	<g>
		<path d="M104,384H40c-4.418,0-8,3.582-8,8v80c0,4.418,3.582,8,8,8h64c4.418,0,8-3.582,8-8v-80C112,387.582,108.418,384,104,384z
			 M96,464H48v-64h48V464z"/>
	</g>
</g>
<g>
	<g>
		<path d="M240,288c-22.091,0-40,17.909-40,40c0,22.091,17.909,40,40,40c22.091,0,40-17.909,40-40C280,305.909,262.091,288,240,288z
			 M240,352c-13.255,0-24-10.745-24-24s10.745-24,24-24s24,10.745,24,24S253.255,352,240,352z"/>
	</g>
</g>
<g>
	<g>
		<path d="M272,384h-64c-4.418,0-8,3.582-8,8v80c0,4.418,3.582,8,8,8h64c4.418,0,8-3.582,8-8v-80C280,387.582,276.418,384,272,384z
			 M264,464h-48v-64h48V464z"/>
	</g>
</g>
<g>
	<g>
		<path d="M136,80c-22.091,0-40,17.909-40,40s17.909,40,40,40s40-17.909,40-40S158.091,80,136,80z M136,144
			c-13.255,0-24-10.745-24-24s10.745-24,24-24s24,10.745,24,24S149.255,144,136,144z"/>
	</g>
</g>
<g>
	<g>
		<path d="M392,64H272c-4.418,0-8,3.582-8,8s3.582,8,8,8h120c4.418,0,8-3.582,8-8S396.418,64,392,64z"/>
	</g>
</g>
<g>
	<g>
		<path d="M392,32H272c-4.418,0-8,3.582-8,8s3.582,8,8,8h120c4.418,0,8-3.582,8-8S396.418,32,392,32z"/>
	</g>
</g>
<g>
	<g>
		<path d="M392,96H272c-4.418,0-8,3.582-8,8s3.582,8,8,8h120c4.418,0,8-3.582,8-8S396.418,96,392,96z"/>
	</g>
</g>
<g>
	<g>
		<path d="M392,128H272c-4.418,0-8,3.582-8,8s3.582,8,8,8h120c4.418,0,8-3.582,8-8S396.418,128,392,128z"/>
	</g>
</g>
<g>
	<g>
		<path d="M392,160H272c-4.418,0-8,3.582-8,8s3.582,8,8,8h120c4.418,0,8-3.582,8-8S396.418,160,392,160z"/>
	</g>
</g>
<g>
</g>
<g>
</g>
<g>
</g>
<g>
</g>
<g>
</g>
<g>
</g>
<g>
</g>
<g>
</g>
<g>
</g>
<g>
</g>
<g>
</g>
<g>
</g>
<g>
</g>
<g>
</g>
<g>
</g>
</svg>
